<svg xmlns="http://www.w3.org/2000/svg" width="160" height="92" viewBox="0 0 112.889 64.911">
	<g fill="#66bc29">
		<path d="M0 50.706l29.326-35.757H0V.737h49.403v14.212L20.076 50.706h29.327V64.91H0z" />
		<path d="M58.74 14.602h10.1v-2.905h-5.793l5.794-7.31V1.48H58.739v2.905h5.794l-5.794 7.31v2.906zM79.214 10.703c.226-4.742-2.859-6.11-4.872-6.11-2.37 0-4.797 1.911-4.797 5.098s2.427 5.099 4.797 5.099c1.957 0 3.744-1.069 4.59-2.962l-3.028-.6c-.301.712-.885 1.031-1.468 1.031-.47 0-1.373-.206-1.693-1.556h6.471zm-4.778-3.58c.621 0 1.43.412 1.524 1.33h-3.141c.263-.899.902-1.33 1.617-1.33zM80.728 14.602h3.198V.731h-3.198v13.871zM95.086 10.703c.226-4.742-2.86-6.11-4.872-6.11-2.37 0-4.797 1.911-4.797 5.098s2.427 5.099 4.797 5.099c1.956 0 3.743-1.069 4.59-2.962l-3.029-.6c-.3.712-.884 1.031-1.467 1.031-.47 0-1.373-.206-1.693-1.556h6.471zm-4.778-3.58c.62 0 1.43.412 1.524 1.33H88.69c.264-.899.903-1.33 1.618-1.33zM96.6 14.602h3.197V7.91c.433-.3 1.073-.6 1.618-.6.546 0 .96.282.96.919v6.373h3.197V8.117c0-2.419-1.41-3.525-3.066-3.525-.96 0-2.05.394-2.897 1.125V4.78H96.6v9.822zM107.247 3.88h2.577l2.352-3.693L109.053 0l-1.806 3.88zm.301 10.722h3.198V4.78h-3.198v9.822z" />
		<path d="M58.593 34.07h2.785v-3.09h1.284c2.336 0 4.394-.918 4.394-3.325s-2.058-3.325-4.394-3.325h-4.07v9.74zm2.785-5.246v-2.338h1.346c.619 0 1.392.25 1.392 1.17 0 .917-.773 1.168-1.392 1.168h-1.346zM67.991 34.07h2.63v-3.716c.712-.807 1.842-1.294 3.08-1.405l-.465-2.31c-1.361.195-2.32 1.086-2.77 2.199v-2.06h-2.475v7.291zM73.84 32.024c0 1.363 1.252 2.184 2.598 2.184.836 0 1.842-.306 2.491-.974.047.279.109.64.217.905l2.507-.14c-.294-.765-.387-1.307-.387-2.226v-2.198c0-2.017-1.44-2.936-3.528-2.936-1.95 0-3.326.919-3.636 2.115l2.569.599c.077-.515.448-.78.99-.78.541 0 .975.223.975.974v.014h-.387c-3.234 0-4.41.974-4.41 2.463zm2.552-.153c0-.334.31-.64 1.841-.64h.403v.362c-.356.473-1.145.737-1.64.737-.372 0-.604-.18-.604-.46zM82.89 34.07h2.63v-4.968c.355-.223.881-.445 1.33-.445.449 0 .79.209.79.682v4.73h2.63v-4.814c0-1.795-1.16-2.616-2.522-2.616-.728 0-1.563.25-2.228.724v-3.59h-2.63V34.07zM92.554 36.852h2.63l4.085-10.073h-2.646l-1.547 4.257-1.563-4.257h-2.785l2.955 7.29-1.13 2.783zM104.487 30.73c-.154 2.073 1.517 3.478 4.333 3.478 2.475 0 4.069-1.196 4.069-2.685 0-.974-.588-1.795-1.81-2.324 1.222-.528 1.81-1.35 1.81-2.323 0-1.489-1.516-2.685-3.992-2.685-2.816 0-4.41 1.266-4.255 3.339l2.708.278c-.155-1.071.433-1.46 1.392-1.46.929 0 1.285.458 1.285.876 0 .584-.604.932-2.058.932v2.087c1.408 0 2.058.278 2.058.932 0 .418-.434.877-1.362.877-.96 0-1.625-.529-1.47-1.6l-2.708.278z" />
	</g>
</svg>
